<svg xmlns="http://www.w3.org/2000/svg" width="500" height="500" viewBox="0 0 500 500" fill="none">
<rect width="500" height="500" fill="white"/>
<path fill-rule="evenodd" clip-rule="evenodd" d="M111.618 303.829C134.748 296.781 151.577 275.275 151.577 249.839C151.577 224.279 134.584 202.688 111.279 195.747H403.958C433.805 195.747 458 219.942 458 249.788C458 279.634 433.805 303.829 403.958 303.829H111.618Z" fill="#1074EB"/>
<circle cx="94.1876" cy="249.839" r="51.65" fill="#FF9900"/>
<path d="M97.4822 235.297C97.483 237.506 99.2746 239.297 101.484 239.297H113.144C115.977 239.297 117.913 242.16 116.858 244.788L99.048 289.153C97.4087 293.237 91.3375 292.063 91.3359 287.662L91.3275 264.543C91.3267 262.334 89.5352 260.543 87.3261 260.543H75.6656C72.8331 260.543 70.8969 257.68 71.952 255.052L89.7618 210.687C91.401 206.603 97.4723 207.777 97.4739 212.178L97.4822 235.297Z" fill="white"/>
<path d="M196.212 280.076C191.024 280.076 186.672 279.24 183.155 277.569C179.639 275.897 176.959 273.706 175.114 270.997C173.327 268.288 172.376 265.406 172.261 262.351C172.261 261.832 172.434 261.399 172.78 261.054C173.125 260.708 173.558 260.535 174.077 260.535H183.847C184.539 260.535 185.087 260.708 185.49 261.054C185.951 261.342 186.297 261.745 186.528 262.264C187.104 263.82 187.853 265.089 188.776 266.069C189.756 267.048 190.88 267.769 192.148 268.23C193.416 268.691 194.771 268.922 196.212 268.922C198.056 268.922 199.757 268.547 201.313 267.798C202.87 266.991 204.109 265.838 205.031 264.339C205.954 262.84 206.415 260.996 206.415 258.805C206.415 256.903 205.982 255.231 205.118 253.79C204.253 252.349 203.043 251.225 201.486 250.418C199.93 249.611 198.172 249.208 196.212 249.208C194.713 249.208 193.474 249.381 192.494 249.726C191.571 250.072 190.793 250.505 190.159 251.023C189.525 251.485 188.949 251.917 188.43 252.32C187.911 252.666 187.335 252.839 186.701 252.839H177.103C176.584 252.839 176.123 252.666 175.719 252.32C175.374 251.917 175.201 251.456 175.201 250.937L178.227 221.106C178.342 220.299 178.63 219.694 179.092 219.29C179.61 218.829 180.216 218.599 180.907 218.599H214.456C215.09 218.599 215.609 218.801 216.012 219.204C216.416 219.608 216.618 220.126 216.618 220.76V227.678C216.618 228.254 216.416 228.744 216.012 229.148C215.609 229.551 215.09 229.753 214.456 229.753H189.467L188.17 242.463C189.323 241.714 190.736 241.051 192.407 240.475C194.137 239.841 196.529 239.524 199.584 239.524C202.351 239.524 204.974 239.985 207.452 240.907C209.989 241.772 212.237 243.069 214.197 244.798C216.157 246.527 217.684 248.602 218.779 251.023C219.932 253.387 220.509 256.096 220.509 259.151C220.509 263.302 219.529 266.962 217.569 270.132C215.609 273.245 212.813 275.695 209.182 277.482C205.55 279.211 201.227 280.076 196.212 280.076Z" fill="white"/>
<path d="M251.424 279.125C250.79 279.125 250.271 278.923 249.867 278.52C249.464 278.116 249.262 277.597 249.262 276.963V220.76C249.262 220.126 249.464 219.608 249.867 219.204C250.271 218.801 250.79 218.599 251.424 218.599H260.589C261.223 218.599 261.742 218.801 262.145 219.204C262.549 219.608 262.751 220.126 262.751 220.76V240.475L280.563 220.242C280.793 219.896 281.168 219.55 281.687 219.204C282.263 218.801 283.013 218.599 283.935 218.599H294.397C294.916 218.599 295.348 218.801 295.694 219.204C296.04 219.55 296.213 219.953 296.213 220.415C296.213 220.818 296.098 221.164 295.867 221.452L273.645 247.565L297.51 276.272C297.741 276.502 297.856 276.848 297.856 277.309C297.856 277.77 297.683 278.203 297.337 278.606C296.991 278.952 296.559 279.125 296.04 279.125H285.232C284.194 279.125 283.416 278.894 282.897 278.433C282.378 277.972 282.033 277.655 281.86 277.482L262.751 255.347V276.963C262.751 277.597 262.549 278.116 262.145 278.52C261.742 278.923 261.223 279.125 260.589 279.125H251.424Z" fill="white"/>
<path d="M322.711 279.125C321.789 279.125 321.04 278.894 320.463 278.433C319.945 277.914 319.57 277.309 319.339 276.617L301.181 221.193C301.124 220.905 301.095 220.645 301.095 220.415C301.095 219.953 301.268 219.55 301.614 219.204C301.96 218.801 302.392 218.599 302.911 218.599H311.99C312.854 218.599 313.517 218.858 313.978 219.377C314.497 219.838 314.814 220.27 314.93 220.674L328.418 262.956L341.82 220.674C341.993 220.27 342.31 219.838 342.772 219.377C343.233 218.858 343.896 218.599 344.76 218.599H353.839C354.358 218.599 354.79 218.801 355.136 219.204C355.482 219.55 355.655 219.953 355.655 220.415C355.655 220.645 355.626 220.905 355.568 221.193L337.411 276.617C337.238 277.309 336.863 277.914 336.287 278.433C335.768 278.894 335.018 279.125 334.038 279.125H322.711Z" fill="white"/>
<path d="M379.746 279.125C379.112 279.125 378.593 278.923 378.189 278.52C377.786 278.116 377.584 277.597 377.584 276.963V230.618H361.847C361.271 230.618 360.781 230.416 360.377 230.012C359.974 229.609 359.772 229.119 359.772 228.542V220.76C359.772 220.126 359.974 219.608 360.377 219.204C360.781 218.801 361.271 218.599 361.847 218.599H407.156C407.79 218.599 408.308 218.801 408.712 219.204C409.115 219.608 409.317 220.126 409.317 220.76V228.542C409.317 229.119 409.115 229.609 408.712 230.012C408.308 230.416 407.79 230.618 407.156 230.618H391.505V276.963C391.505 277.597 391.303 278.116 390.9 278.52C390.496 278.923 389.978 279.125 389.344 279.125H379.746Z" fill="white"/>
</svg>